<?xml version="1.0" encoding="utf-8"?>
<!-- Generator: Adobe Illustrator 25.2.3, SVG Export Plug-In . SVG Version: 6.00 Build 0)  -->
<svg version="1.1" id="Layer_1" xmlns="http://www.w3.org/2000/svg" xmlns:xlink="http://www.w3.org/1999/xlink" x="0px" y="0px"
	 width="189px" height="55px" viewBox="0 0 189 55" style="enable-background:new 0 0 189 55;" xml:space="preserve">
<path d="M134.9,18.7c0-1.8,1.4-3.2,3.2-3.2c1.8,0,3.2,1.4,3.2,3.2s-1.4,3.2-3.2,3.2C136.4,21.9,134.9,20.5,134.9,18.7 M56.8,22.3
	c0-1.8,1.4-3.2,3.2-3.2c1.8,0,3.2,1.4,3.2,3.2c0,1.8-1.4,3.2-3.2,3.2C58.3,25.6,56.8,24.1,56.8,22.3 M48.4,14.6v1.1l-6,8.8
	L31.8,39.4c-4.5,5.9-9.2,14-17.5,14.5c-5,0.7-9.9-1.3-12.5-4.9c-0.8-1.5-2.2-3.2-1.7-5.2c0.7-0.8,1.9-1.2,3-1.3
	c2.4,0.3,2.4,3.3,4.1,4.3c2.1,2,5.8,2.5,8.5,1.3c2.8-1.2,4.7-3.3,6.6-5.5l17-23.8c1.8-1.9,2.5-5.4,5.8-5.6
	C46.3,13.4,47.8,13.4,48.4,14.6 M84.2,0.7c0.5,1,1,2.1,0.6,3.3c-2.7,5.1-8.9,5.3-14.2,5.6l-6.9-0.1l-26-1C32,8.1,26.5,8.9,22.1,11.6
	c-1.2,1-2.5,2.1-2.5,3.7c0.5,1.2,1.9,1.3,3.1,1.3c2.9,0.1,5.3-0.9,7.8-1.7c0.8-0.2,1.7-0.1,2.3,0.3c0.7,0.5,0.8,1.3,0.9,2.1
	c0.1,0.8-0.2,1.3-0.7,1.9c-3.4,2.6-7.9,2.8-12.3,2.6c-3.3-0.1-5.9-2-7-4.9c-0.9-4.3,2.2-7.3,5-9.6C29.9,0.6,45.2,3.8,58.4,4
	c6.1,0.1,12.5,0.3,18.4-0.7c2.2-0.4,4-1.8,5.6-3.2C83-0.2,83.7,0.4,84.2,0.7 M152,40.6c0.8-2.6-0.3-5.3-1.5-7.2l-3,6v0.4
	c0.8,0.9,2,2.3,3.6,1.9C151.3,41.3,151.8,41,152,40.6 M118.6,29c-0.3-1.5-1.8-0.3-2.3,0.3c-1.6,2.1-3.1,4.9-1.9,7.6
	C116.8,35.2,119,32.4,118.6,29 M104.8,14.1c-0.2-0.3-0.4-0.7-0.9-0.7c-2,0.4-3.3,1.8-4.5,3.3c-3.2,4.3-5.8,9.2-5.8,15
	c3.5-3,6.3-6.8,8.7-10.3C103.5,19.2,105.2,17,104.8,14.1 M108.7,9.7c3.3,4.7,0.5,10.5-1.8,14.8c-3.4,5.4-7.3,9.5-12.2,13.4
	c0.3,1.3,1.2,2.2,2.3,2.9c2.2,1.3,5.6,1.8,8.2,0.7c1.3-0.5,2.3-1.4,3.5-2.3c-0.6-3.4-0.1-7.2,1.3-10.1c1.8-3.1,4.8-6.1,8.9-6
	c2,0,3.8,1.3,4.6,3c1.4,3.5,0.4,7.5-2,10.3c-1.4,1.7-2.8,2.9-4.4,4.2c1.1,1.1,3.1,1.4,4.8,1c1.9-0.7,3.9-1.7,5.1-3.3
	c1.8-4,3.3-8.5,4.9-12.7c0.6-1,1.7-1.6,2.9-1.6c1.1-0.1,2.2,0.2,2.7,1c0.3,0.8,0,1.6-0.3,2.3c-1.4,3.6-2.9,7.1-3.9,10.8
	c-0.1,1.1,0.2,2.4,1.2,2.9c2.1,0.7,4.1-0.6,5.4-2c3.9-4.3,7-9.7,8.5-15.7c0.3-0.6,0.6-1.1,1.2-1.4c0.8-0.2,1.9-0.2,2.6,0.2
	c1.2,1,1.1,2.8,1.9,4.1c2.1,4.2,4.2,8.5,3.8,13.6c4.1-0.9,6-5,8.1-8.2c0.4-0.6,0.7-1.3,0.9-1.9c-1.2-0.3-3.1,0.4-3.7-1.1
	c-0.4-1-0.3-2.3,0.3-3.2c1.2-1.9,4.1-0.9,6.3-1.2c1.1-1.8,1.8-3.7,2.7-5.5c0.4-0.5,1.1-0.7,1.8-0.6c1.5,0.5,2.8,1.7,3,3.4
	c-0.2,0.9-0.6,1.8-1,2.6l0.2,0.2l9.7,0.1c0.6,0.1,1.2,0.2,1.5,0.8c0.5,0.8,0.3,1.8,0.1,2.6c-0.3,0.8-1,1.5-1.8,1.7
	c-4.3,0.2-8.3,0.3-12.7,0.3c-1.6,2.5-3.1,5-4.2,7.7c-0.3,0.9-0.4,2.2,0.1,3.1c0.7,1.1,2.2,1.5,3.6,1.3c2.1-0.1,3.8-1.2,5.3-2.5
	c0.5-0.3,1.1-0.2,1.7,0c0.5,0.3,1.1,0.8,1.2,1.5c0.5,1.6-0.3,3-1.5,4c-2.8,2.4-6.8,3.2-10.4,2.2c-2.2-0.6-4-1.9-5.4-3.8
	c-2.5,1.7-5.4,2.7-8.7,2.5c-1.6,1.8-4.5,1.9-6.7,1.1c-2-0.6-3.3-2.2-4.8-3.6c-2.9,2.2-6.7,4.8-10.6,3c-1.3-0.6-2.4-1.5-3.5-2.5
	c-3.2,2.8-8.2,4.3-12.7,2.7c-1.9-0.6-3.6-1.6-5-2.9c-2.4,1.2-4.5,2.6-7.1,3.3c-5.1,1.4-10.5-0.3-13.4-4.2c-0.4-0.6-0.8-1.1-1.1-1.6
	c-2.7,1.6-5.4,3.7-8.5,4.9c-4.1,1.8-10.4,2.9-14-0.5c-0.8-0.7-1.5-1.5-2-2.3c-0.9,0.4-1.5,1.2-2.4,1.8c-3.5,2.6-9.1,3.4-13.3,1.5
	c-1.2-0.7-2.1-2.3-2.5-3.5c-3,1.6-5.6,3.8-9,4.6c-1.9,0.3-3-1.5-4-2.6c-0.2-0.4-0.1-0.9,0.1-1.3c0.7-1,2.1-0.8,3-1.4
	c4.2-1.8,8.2-4,10.9-8c1.6-2.1,3-4.6,4.6-6.8c0.8-0.9,2-1.1,3.1-0.8c0.8,0.2,1.8,0.7,1.9,1.6v0.5c-1.2,3.5-4.2,6.2-5.4,9.7
	c-0.2,0.8-0.2,1.8,0.2,2.5c0.7,1,2,1.2,3.1,0.9c7.9-1.7,9.9-9.2,14-14.7V27c-1.2-0.4-3.4,0.5-3.5-1.2c-0.1-1.6,0.6-2.7,1.8-3.5
	c1.4-0.5,3.3-0.3,4.9-0.4c1.5-1.4,1.5-5.1,4.8-4.4c1,0,2.2,0.4,2.6,1.5c0.1,1.1-0.8,1.9-1.1,2.8c1.7,0.2,3.6,0,5.3,0.1
	c0.4,0.2,0.7,0.5,0.8,0.9c0.1,1.6-0.8,3.1-2.1,3.7c-2.1,0.6-4.7,0.2-6.9,0.4l-5.9,9.8c-0.5,1.1-0.9,2.6-0.2,3.7
	c1.4,1.9,4,2.1,6.1,1.7c4.4-1.4,8-4,11.5-6.6c-1.1-10.2,3.3-19,9.9-25.4c2.1-1.9,4.9-3.1,8-2.5C107,8.1,108,8.7,108.7,9.7
	 M184.7,21.5h0.4v-0.9h0.3c0.2,0,0.4,0,0.5,0.1c0.1,0.1,0.2,0.3,0.2,0.5v0.2v0.1l0,0l0,0h0.4l0,0v-0.1c0-0.1,0-0.1,0-0.2V21
	c0-0.1,0-0.2-0.1-0.4c-0.1-0.1-0.2-0.2-0.4-0.2c0.1,0,0.3-0.1,0.3-0.1c0.2-0.1,0.2-0.3,0.2-0.5c0-0.3-0.1-0.5-0.4-0.6
	c-0.1-0.1-0.3-0.1-0.6-0.1h-0.8L184.7,21.5L184.7,21.5z M185.8,20.3c-0.1,0-0.2,0.1-0.4,0.1H185v-0.9h0.4c0.2,0,0.4,0,0.5,0.1
	s0.2,0.2,0.2,0.3C186.1,20.1,186,20.2,185.8,20.3 M187,18.8c-0.4-0.4-0.9-0.6-1.5-0.6s-1.1,0.2-1.5,0.6c-0.4,0.4-0.6,0.9-0.6,1.5
	c0,0.6,0.2,1.1,0.6,1.5c0.4,0.4,0.9,0.6,1.5,0.6s1.1-0.2,1.5-0.6c0.4-0.4,0.6-0.9,0.6-1.5C187.7,19.8,187.5,19.3,187,18.8
	 M186.8,19.1c0.4,0.4,0.5,0.8,0.5,1.3c0,0.5-0.2,1-0.5,1.3c-0.4,0.4-0.8,0.5-1.3,0.5c-0.5,0-0.9-0.2-1.3-0.5
	c-0.4-0.4-0.5-0.8-0.5-1.3c0-0.5,0.2-0.9,0.5-1.3c0.4-0.4,0.8-0.5,1.3-0.5C186,18.5,186.5,18.7,186.8,19.1"/>
</svg>
